<svg id="Calque_1" data-name="Calque 1" xmlns="http://www.w3.org/2000/svg" viewBox="0 0 508 290"><defs><style>.cls-1{fill:#fff;}</style></defs><title>bulle_mamy</title><rect class="cls-1" x="76" y="159" width="26" height="27"/><rect class="cls-1" x="102" y="160" width="26" height="27"/><rect class="cls-1" x="76" y="133" width="26" height="27"/><rect class="cls-1" x="50" y="159" width="26" height="27"/><rect class="cls-1" x="49" y="186" width="26" height="27"/><rect class="cls-1" x="23" y="186" width="26" height="27"/><rect class="cls-1" y="186" width="26" height="27"/><rect class="cls-1" x="102" y="132.5" width="26" height="27"/><rect class="cls-1" x="127.57" y="159.5" width="26" height="27"/><rect class="cls-1" x="127.57" y="132.5" width="26" height="27"/><rect class="cls-1" x="127.57" y="105.5" width="26" height="27"/><rect class="cls-1" x="127.57" y="78.5" width="26" height="27"/><rect class="cls-1" x="127.57" y="186.5" width="26" height="27"/><rect class="cls-1" x="153" y="208.97" width="26" height="27"/><rect class="cls-1" x="178" y="208.97" width="26" height="27"/><rect class="cls-1" x="178" y="235.99" width="26" height="27"/><rect class="cls-1" x="203" y="208.97" width="26" height="27"/><rect class="cls-1" x="203" y="235.99" width="26" height="27"/><rect class="cls-1" x="152" y="51.7" width="26" height="27"/><rect class="cls-1" x="177" y="51.7" width="26" height="27"/><rect class="cls-1" x="177" y="26.25" width="26" height="27"/><rect class="cls-1" x="202" y="51.7" width="26" height="27"/><rect class="cls-1" x="202" y="26.25" width="26" height="27"/><rect class="cls-1" x="152" y="77.7" width="26" height="27"/><rect class="cls-1" x="177" y="77.7" width="26" height="27"/><rect class="cls-1" x="202" y="77.7" width="26" height="27"/><rect class="cls-1" x="152" y="103.7" width="26" height="27"/><rect class="cls-1" x="177" y="103.7" width="26" height="27"/><rect class="cls-1" x="202" y="103.7" width="26" height="27"/><rect class="cls-1" x="152" y="129.7" width="26" height="27"/><rect class="cls-1" x="177" y="129.7" width="26" height="27"/><rect class="cls-1" x="202" y="129.7" width="26" height="27"/><rect class="cls-1" x="152" y="155.7" width="26" height="27"/><rect class="cls-1" x="177" y="155.7" width="26" height="27"/><rect class="cls-1" x="202" y="155.7" width="26" height="27"/><rect class="cls-1" x="153" y="182.7" width="26" height="27"/><rect class="cls-1" x="178" y="182.7" width="26" height="27"/><rect class="cls-1" x="203" y="182.7" width="26" height="27"/><rect class="cls-1" x="228" y="208.97" width="26" height="27"/><rect class="cls-1" x="228" y="235.99" width="26" height="27"/><rect class="cls-1" x="227" y="51.7" width="26" height="27"/><rect class="cls-1" x="227" y="26.25" width="26" height="27"/><rect class="cls-1" x="227" y="77.7" width="26" height="27"/><rect class="cls-1" x="227" y="103.7" width="26" height="27"/><rect class="cls-1" x="227" y="129.7" width="26" height="27"/><rect class="cls-1" x="227" y="155.7" width="26" height="27"/><rect class="cls-1" x="228" y="182.7" width="26" height="27"/><rect class="cls-1" x="254" y="209.97" width="26" height="27"/><rect class="cls-1" x="254" y="235.99" width="26" height="27"/><rect class="cls-1" x="253" y="52.7" width="26" height="27"/><rect class="cls-1" x="253" y="26.25" width="26" height="27"/><rect class="cls-1" x="253" y="78.7" width="26" height="27"/><rect class="cls-1" x="253" y="104.7" width="26" height="27"/><rect class="cls-1" x="253" y="130.7" width="26" height="27"/><rect class="cls-1" x="253" y="156.7" width="26" height="27"/><rect class="cls-1" x="254" y="183.7" width="26" height="27"/><rect class="cls-1" x="280" y="209.97" width="26" height="27"/><rect class="cls-1" x="280" y="235.99" width="26" height="27"/><rect class="cls-1" x="279" y="52.7" width="26" height="27"/><rect class="cls-1" x="279" y="26.25" width="26" height="27"/><rect class="cls-1" x="279" y="78.7" width="26" height="27"/><rect class="cls-1" x="279" y="104.7" width="26" height="27"/><rect class="cls-1" x="279" y="130.7" width="26" height="27"/><rect class="cls-1" x="279" y="156.7" width="26" height="27"/><rect class="cls-1" x="280" y="183.7" width="26" height="27"/><rect class="cls-1" x="1854" y="703.5" width="26" height="27" transform="translate(2362 863) rotate(-180)"/><rect class="cls-1" x="1828.43" y="730.5" width="26" height="27" transform="translate(2310.86 917) rotate(-180)"/><rect class="cls-1" x="1828.43" y="703.5" width="26" height="27" transform="translate(2310.86 863) rotate(-180)"/><rect class="cls-1" x="1828.43" y="676.5" width="26" height="27" transform="translate(2310.86 809) rotate(-180)"/><rect class="cls-1" x="1828.43" y="649.5" width="26" height="27" transform="translate(2310.86 755) rotate(-180)"/><rect class="cls-1" x="1828.43" y="757.5" width="26" height="27" transform="translate(2310.86 971) rotate(-180)"/><rect class="cls-1" x="1803" y="779.97" width="26" height="27" transform="translate(2260 1015.93) rotate(-180)"/><rect class="cls-1" x="1778" y="779.97" width="26" height="27" transform="translate(2210 1015.93) rotate(-180)"/><rect class="cls-1" x="1778" y="806.99" width="26" height="27" transform="translate(2210 1069.97) rotate(-180)"/><rect class="cls-1" x="1753" y="779.97" width="26" height="27" transform="translate(2160 1015.93) rotate(-180)"/><rect class="cls-1" x="1753" y="806.99" width="26" height="27" transform="translate(2160 1069.97) rotate(-180)"/><rect class="cls-1" x="1804" y="622.7" width="26" height="27" transform="translate(2262 701.4) rotate(180)"/><rect class="cls-1" x="1779" y="622.7" width="26" height="27" transform="translate(2212 701.4) rotate(180)"/><rect class="cls-1" x="1779" y="597.25" width="26" height="27" transform="translate(2212 650.5) rotate(180)"/><rect class="cls-1" x="1754" y="622.7" width="26" height="27" transform="translate(2162 701.4) rotate(180)"/><rect class="cls-1" x="1754" y="597.25" width="26" height="27" transform="translate(2162 650.5) rotate(180)"/><rect class="cls-1" x="1804" y="648.7" width="26" height="27" transform="translate(2262 753.4) rotate(180)"/><rect class="cls-1" x="1779" y="648.7" width="26" height="27" transform="translate(2212 753.4) rotate(180)"/><rect class="cls-1" x="1754" y="648.7" width="26" height="27" transform="translate(2162 753.4) rotate(180)"/><rect class="cls-1" x="1804" y="674.7" width="26" height="27" transform="translate(2262 805.4) rotate(180)"/><rect class="cls-1" x="1779" y="674.7" width="26" height="27" transform="translate(2212 805.4) rotate(180)"/><rect class="cls-1" x="1754" y="674.7" width="26" height="27" transform="translate(2162 805.4) rotate(180)"/><rect class="cls-1" x="1804" y="700.7" width="26" height="27" transform="translate(2262 857.4) rotate(180)"/><rect class="cls-1" x="1779" y="700.7" width="26" height="27" transform="translate(2212 857.4) rotate(180)"/><rect class="cls-1" x="1754" y="700.7" width="26" height="27" transform="translate(2162 857.4) rotate(180)"/><rect class="cls-1" x="1804" y="726.7" width="26" height="27" transform="translate(2262 909.4) rotate(180)"/><rect class="cls-1" x="1779" y="726.7" width="26" height="27" transform="translate(2212 909.4) rotate(180)"/><rect class="cls-1" x="1754" y="726.7" width="26" height="27" transform="translate(2162 909.4) rotate(180)"/><rect class="cls-1" x="1803" y="753.7" width="26" height="27" transform="translate(2260 963.4) rotate(180)"/><rect class="cls-1" x="1778" y="753.7" width="26" height="27" transform="translate(2210 963.4) rotate(180)"/><rect class="cls-1" x="1753" y="753.7" width="26" height="27" transform="translate(2160 963.4) rotate(180)"/><rect class="cls-1" x="1728" y="779.97" width="26" height="27" transform="translate(2110 1015.93) rotate(-180)"/><rect class="cls-1" x="1728" y="806.99" width="26" height="27" transform="translate(2110 1069.97) rotate(-180)"/><rect class="cls-1" x="1729" y="622.7" width="26" height="27" transform="translate(2112 701.4) rotate(180)"/><rect class="cls-1" x="1729" y="597.25" width="26" height="27" transform="translate(2112 650.5) rotate(180)"/><rect class="cls-1" x="1729" y="648.7" width="26" height="27" transform="translate(2112 753.4) rotate(180)"/><rect class="cls-1" x="1729" y="674.7" width="26" height="27" transform="translate(2112 805.4) rotate(180)"/><rect class="cls-1" x="1729" y="700.7" width="26" height="27" transform="translate(2112 857.4) rotate(180)"/><rect class="cls-1" x="1729" y="726.7" width="26" height="27" transform="translate(2112 909.4) rotate(180)"/><rect class="cls-1" x="1728" y="753.7" width="26" height="27" transform="translate(2110 963.4) rotate(180)"/><rect class="cls-1" x="1702" y="780.97" width="26" height="27" transform="translate(2058 1017.93) rotate(-180)"/><rect class="cls-1" x="1702" y="806.99" width="26" height="27" transform="translate(2058 1069.97) rotate(-180)"/><rect class="cls-1" x="1703" y="623.7" width="26" height="27" transform="translate(2060 703.4) rotate(180)"/><rect class="cls-1" x="1703" y="597.25" width="26" height="27" transform="translate(2060 650.5) rotate(180)"/><rect class="cls-1" x="1703" y="649.7" width="26" height="27" transform="translate(2060 755.4) rotate(180)"/><rect class="cls-1" x="1703" y="675.7" width="26" height="27" transform="translate(2060 807.4) rotate(180)"/><rect class="cls-1" x="1703" y="701.7" width="26" height="27" transform="translate(2060 859.4) rotate(180)"/><rect class="cls-1" x="1703" y="727.7" width="26" height="27" transform="translate(2060 911.4) rotate(180)"/><rect class="cls-1" x="1702" y="754.7" width="26" height="27" transform="translate(2058 965.4) rotate(180)"/><rect class="cls-1" x="1676" y="780.97" width="26" height="27" transform="translate(2006 1017.93) rotate(-180)"/><rect class="cls-1" x="1676" y="806.99" width="26" height="27" transform="translate(2006 1069.97) rotate(-180)"/><rect class="cls-1" x="252" y="263" width="26" height="27"/><rect class="cls-1" x="278" y="263" width="26" height="27"/><rect class="cls-1" x="1700" y="834" width="26" height="27" transform="translate(2054 1124) rotate(-180)"/><rect class="cls-1" x="1674" y="834" width="26" height="27" transform="translate(2002 1124) rotate(-180)"/><rect class="cls-1" x="252" width="26" height="27"/><rect class="cls-1" x="278" width="26" height="27"/><rect class="cls-1" x="1700" y="571" width="26" height="27" transform="translate(2054 598) rotate(-180)"/><rect class="cls-1" x="1674" y="571" width="26" height="27" transform="translate(2002 598) rotate(-180)"/><rect class="cls-1" x="1677" y="623.7" width="26" height="27" transform="translate(2008 703.4) rotate(180)"/><rect class="cls-1" x="1677" y="597.25" width="26" height="27" transform="translate(2008 650.5) rotate(180)"/><rect class="cls-1" x="1677" y="649.7" width="26" height="27" transform="translate(2008 755.4) rotate(180)"/><rect class="cls-1" x="1677" y="675.7" width="26" height="27" transform="translate(2008 807.4) rotate(180)"/><rect class="cls-1" x="1677" y="701.7" width="26" height="27" transform="translate(2008 859.4) rotate(180)"/><rect class="cls-1" x="1677" y="727.7" width="26" height="27" transform="translate(2008 911.4) rotate(180)"/><rect class="cls-1" x="1676" y="754.7" width="26" height="27" transform="translate(2006 965.4) rotate(180)"/></svg>