<?xml version="1.0" encoding="utf-8"?>
<!-- Generator: Adobe Illustrator 23.0.1, SVG Export Plug-In . SVG Version: 6.00 Build 0)  -->
<svg version="1.1" id="Calque_1" xmlns="http://www.w3.org/2000/svg" xmlns:xlink="http://www.w3.org/1999/xlink" x="0px" y="0px"
	 viewBox="0 0 1920 1080" style="enable-background:new 0 0 1920 1080;" xml:space="preserve">
<style type="text/css">
	.st0{fill:#A67C52;}
	.st1{fill:#C69C6D;}
	.st2{fill:#754C24;}
	.st3{fill:#8C6239;}
</style>
<path class="st0" d="M1003.5,223.05c79.68,7.36,218.14,20.15,275.01,134.84c54.97,110.87,4.06,257.18-72.47,337.1
	c-114.74,119.81-325.01,130-442.79,0c-96.59-106.61-120.41-295.82-37.73-399.16C798.86,204.15,927.21,216,1003.5,223.05z"/>
<path class="st1" d="M1013.5,222.05c79.68,7.36,218.14,20.15,275.01,134.84c54.97,110.87,4.06,257.18-72.47,337.1
	c-114.74,119.81-325.01,130-442.79,0c-96.59-106.61-120.41-295.82-37.73-399.16C808.86,203.15,937.21,215,1013.5,222.05z"/>
<path class="st2" d="M1197.08,577.05c1.44,6.29,7.09,30.91-4.68,38.63c-9.55,6.26-26.53-1.24-35.53-11.03
	c-21.16-23.03-9.72-71.31,4.96-74.68C1173.86,527.2,1191.74,553.78,1197.08,577.05z"/>
<path class="st2" d="M1050.21,664.98c0.98,4.53,4.75,22.28-3.13,27.84c-6.39,4.51-17.77-0.9-23.79-7.95
	c-14.17-16.59-2.55-62.64,3.32-53.82C1038.61,649.07,1047.18,651,1050.21,664.98z"/>
<path class="st2" d="M1193.32,401.62c4.62,0.31,22.72,1.58,25.9,10.69c2.57,7.39-5.76,16.83-14.2,20.68
	c-19.86,9.05-60.92-14.81-50.82-18.03C1174.83,408.39,1179.05,400.68,1193.32,401.62z"/>
<path class="st2" d="M852.5,646.5c6.42,0.68,35.13-8.84,38.59,4.8c2.81,11.06-9.81,24.68-22,30c-28.66,12.51-70.59-14.03-69-29
	C801.39,640.03,828.76,643.97,852.5,646.5z"/>
<path class="st3" d="M1205.08,582.05c1.44,6.29,7.09,30.91-4.68,38.63c-9.55,6.26-26.53-1.24-35.53-11.03
	c-21.16-23.03-9.72-71.31,4.96-74.68C1181.86,532.2,1199.74,558.78,1205.08,582.05z"/>
<path class="st3" d="M1058.21,669.98c0.98,4.53,4.75,22.28-3.13,27.84c-6.39,4.51-17.77-0.9-23.79-7.95
	c-14.17-16.59-2.55-62.64,3.32-53.82C1046.61,654.07,1055.18,656,1058.21,669.98z"/>
<path class="st3" d="M1201.32,406.62c4.62,0.31,22.72,1.58,25.9,10.69c2.57,7.39-5.76,16.83-14.2,20.68
	c-19.86,9.05-60.92-14.81-50.82-18.03C1182.83,413.39,1187.05,405.68,1201.32,406.62z"/>
<path class="st2" d="M902.11,401.64c2.21,2.6,10.83,12.85,6.38,21.36c-3.61,6.91-14.3,9.78-21.3,8.35
	c-16.45-3.34-21.93-42.44-14.49-39.7C887.9,397.27,895.28,393.61,902.11,401.64z"/>
<path class="st3" d="M902.94,409.52c2.21,2.6,10.83,12.85,6.38,21.36c-3.61,6.91-14.3,9.78-21.3,8.35
	c-16.45-3.34-21.93-42.44-14.49-39.7C888.73,405.16,896.12,401.49,902.94,409.52z"/>
<path class="st2" d="M992.11,721.64c2.21,2.6,10.83,12.85,6.38,21.36c-3.61,6.91-14.3,9.78-21.3,8.35
	c-16.45-3.34-21.93-42.44-14.49-39.7C977.9,717.27,985.28,713.61,992.11,721.64z"/>
<path class="st3" d="M992.94,729.52c2.21,2.6,10.83,12.85,6.38,21.36c-3.61,6.91-14.3,9.78-21.3,8.35
	c-16.45-3.34-21.93-42.44-14.49-39.7C978.73,725.16,986.12,721.49,992.94,729.52z"/>
<path class="st2" d="M971.11,603.64c2.21,2.6,10.83,12.85,6.38,21.36c-3.61,6.91-14.3,9.78-21.3,8.35
	c-16.45-3.34-21.93-42.44-14.49-39.7C956.9,599.27,964.28,595.61,971.11,603.64z"/>
<path class="st3" d="M971.94,611.52c2.21,2.6,10.83,12.85,6.38,21.36c-3.61,6.91-14.3,9.78-21.3,8.35
	c-16.45-3.34-21.93-42.44-14.49-39.7C957.73,607.16,965.12,603.49,971.94,611.52z"/>
<path class="st2" d="M804.11,562.64c2.21,2.6,10.83,12.85,6.38,21.36c-3.61,6.91-14.3,9.78-21.3,8.35
	c-16.45-3.34-21.93-42.44-14.49-39.7C789.9,558.27,797.28,554.61,804.11,562.64z"/>
<path class="st3" d="M804.94,570.52c2.21,2.6,10.83,12.85,6.38,21.36c-3.61,6.91-14.3,9.78-21.3,8.35
	c-16.45-3.34-21.93-42.44-14.49-39.7C790.73,566.16,798.12,562.49,804.94,570.52z"/>
<path class="st2" d="M856.37,512.33c1.71,1.91,8.37,9.44,4.93,15.7c-2.79,5.08-11.05,7.19-16.46,6.14
	c-12.72-2.46-16.95-31.2-11.2-29.18C845.38,509.12,851.09,506.42,856.37,512.33z"/>
<path class="st3" d="M857.01,518.12c1.71,1.91,8.37,9.44,4.93,15.7c-2.79,5.08-11.05,7.19-16.46,6.14
	c-12.72-2.46-16.95-31.2-11.2-29.18C846.02,514.91,851.73,512.22,857.01,518.12z"/>
<path class="st2" d="M1171.37,677.33c1.71,1.91,8.37,9.44,4.93,15.7c-2.79,5.08-11.05,7.19-16.46,6.14
	c-12.72-2.46-16.95-31.2-11.2-29.18C1160.38,674.12,1166.09,671.42,1171.37,677.33z"/>
<path class="st3" d="M1172.01,683.12c1.71,1.91,8.37,9.44,4.93,15.7c-2.79,5.08-11.05,7.19-16.46,6.14
	c-12.72-2.46-16.95-31.2-11.2-29.18C1161.02,679.91,1166.73,677.22,1172.01,683.12z"/>
<path class="st2" d="M1092.37,584.33c1.71,1.91,8.37,9.44,4.93,15.7c-2.79,5.08-11.05,7.19-16.46,6.14
	c-12.72-2.46-16.95-31.2-11.2-29.18C1081.38,581.12,1087.09,578.42,1092.37,584.33z"/>
<path class="st3" d="M1093.01,590.12c1.71,1.91,8.37,9.44,4.93,15.7c-2.79,5.08-11.05,7.19-16.46,6.14
	c-12.72-2.46-16.95-31.2-11.2-29.18C1082.02,586.91,1087.73,584.22,1093.01,590.12z"/>
<path class="st2" d="M1023.37,284.33c1.71,1.91,8.37,9.44,4.93,15.7c-2.79,5.08-11.05,7.19-16.46,6.14
	c-12.72-2.46-16.95-31.2-11.2-29.18C1012.38,281.12,1018.09,278.42,1023.37,284.33z"/>
<path class="st3" d="M1024.01,290.12c1.71,1.91,8.37,9.44,4.93,15.7c-2.79,5.08-11.05,7.19-16.46,6.14
	c-12.72-2.46-16.95-31.2-11.2-29.18C1013.02,286.91,1018.73,284.22,1024.01,290.12z"/>
<path class="st2" d="M784.75,435.47c-2.36-1.01-11.58-5.02-11.1-12.15c0.38-5.78,6.98-11.18,12.32-12.52
	c12.56-3.15,28.55,21.11,22.48,21.71C796.06,433.73,792.03,438.59,784.75,435.47z"/>
<path class="st3" d="M781.72,430.49c-2.36-1.01-11.58-5.02-11.1-12.15c0.38-5.78,6.98-11.18,12.32-12.52
	c12.56-3.15,28.55,21.11,22.48,21.71C793.02,428.75,788.99,433.61,781.72,430.49z"/>
<path class="st2" d="M895.65,486.37c-2.36-1.01-11.58-5.02-11.1-12.15c0.38-5.78,6.98-11.18,12.32-12.52
	c12.56-3.15,28.55,21.11,22.48,21.71C906.96,484.63,902.93,489.49,895.65,486.37z"/>
<path class="st3" d="M892.62,481.39c-2.36-1.01-11.58-5.02-11.1-12.15c0.38-5.78,6.98-11.18,12.32-12.52
	c12.56-3.15,28.55,21.11,22.48,21.71C903.93,479.65,899.9,484.51,892.62,481.39z"/>
<path class="st2" d="M1084.97,729.1c-2.36-1.01-11.58-5.02-11.1-12.15c0.38-5.78,6.98-11.18,12.32-12.52
	c12.56-3.15,28.55,21.11,22.48,21.71C1096.28,727.36,1092.25,732.22,1084.97,729.1z"/>
<path class="st3" d="M1081.94,724.12c-2.36-1.01-11.58-5.02-11.1-12.15c0.38-5.78,6.98-11.18,12.32-12.52
	c12.56-3.15,28.55,21.11,22.48,21.71C1093.25,722.38,1089.22,727.24,1081.94,724.12z"/>
<path class="st2" d="M921.37,284.33c1.71,1.91,8.37,9.44,4.93,15.7c-2.79,5.08-11.05,7.19-16.46,6.14
	c-12.72-2.46-16.95-31.2-11.2-29.18C910.38,281.12,916.09,278.42,921.37,284.33z"/>
<path class="st3" d="M922.01,290.12c1.71,1.91,8.37,9.44,4.93,15.7c-2.79,5.08-11.05,7.19-16.46,6.14
	c-12.72-2.46-16.95-31.2-11.2-29.18C911.02,286.91,916.73,284.22,922.01,290.12z"/>
<path class="st2" d="M1115.37,427.33c1.71,1.91,8.37,9.44,4.93,15.7c-2.79,5.08-11.05,7.19-16.46,6.14
	c-12.72-2.46-16.95-31.2-11.2-29.18C1104.38,424.12,1110.09,421.42,1115.37,427.33z"/>
<path class="st3" d="M1116.01,433.12c1.71,1.91,8.37,9.44,4.93,15.7c-2.79,5.08-11.05,7.19-16.46,6.14
	c-12.72-2.46-16.95-31.2-11.2-29.18C1105.02,429.91,1110.73,427.22,1116.01,433.12z"/>
<path class="st2" d="M1164.37,276.33c1.71,1.91,8.37,9.44,4.93,15.7c-2.79,5.08-11.05,7.19-16.46,6.14
	c-12.72-2.46-16.95-31.2-11.2-29.18C1153.38,273.12,1159.09,270.42,1164.37,276.33z"/>
<path class="st3" d="M1165.01,282.12c1.71,1.91,8.37,9.44,4.93,15.7c-2.79,5.08-11.05,7.19-16.46,6.14
	c-12.72-2.46-16.95-31.2-11.2-29.18C1154.02,278.91,1159.73,276.22,1165.01,282.12z"/>
<path class="st2" d="M1268.37,494.33c1.71,1.91,8.37,9.44,4.93,15.7c-2.79,5.08-11.05,7.19-16.46,6.14
	c-12.72-2.46-16.95-31.2-11.2-29.18C1257.38,491.12,1263.09,488.42,1268.37,494.33z"/>
<path class="st3" d="M1269.01,500.12c1.71,1.91,8.37,9.44,4.93,15.7c-2.79,5.08-11.05,7.19-16.46,6.14
	c-12.72-2.46-16.95-31.2-11.2-29.18C1258.02,496.91,1263.73,494.22,1269.01,500.12z"/>
<path class="st3" d="M1254.01,343.12c1.71,1.91,8.37,9.44,4.93,15.7c-2.79,5.08-11.05,7.19-16.46,6.14
	c-12.72-2.46-16.95-31.2-11.2-29.18C1243.02,339.91,1248.73,337.22,1254.01,343.12z"/>
<path class="st2" d="M1136.37,491.33c1.71,1.91,8.37,9.44,4.93,15.7c-2.79,5.08-11.05,7.19-16.46,6.14
	c-12.72-2.46-16.95-31.2-11.2-29.18C1125.38,488.12,1131.09,485.42,1136.37,491.33z"/>
<path class="st3" d="M1137.01,497.12c1.71,1.91,8.37,9.44,4.93,15.7c-2.79,5.08-11.05,7.19-16.46,6.14
	c-12.72-2.46-16.95-31.2-11.2-29.18C1126.02,493.91,1131.73,491.22,1137.01,497.12z"/>
<path class="st3" d="M860.5,651.5c6.42,0.68,35.13-8.84,38.59,4.8c2.81,11.06-9.81,24.68-22,30c-28.66,12.51-70.59-14.03-69-29
	C809.39,645.03,836.76,648.97,860.5,651.5z"/>
<path class="st2" d="M817.31,345.55c-3.96-0.35-19.45-1.74-21.98-14.59c-2.05-10.43,5.28-24.01,12.6-29.66
	c17.21-13.28,43.72,10.1,43.2,24.46C850.69,337.53,831.95,346.86,817.31,345.55z"/>
<path class="st2" d="M761.08,444.91c6.45,0.03,31.72,0.16,36.54,13.38c3.91,10.72-7.27,25.55-18.86,32.07
	c-27.25,15.34-71.64-6.83-71.58-21.88C707.24,456.13,737.2,444.79,761.08,444.91z"/>
<path class="st3" d="M770.08,446.91c6.45,0.03,31.72,0.16,36.54,13.38c3.91,10.72-7.27,25.55-18.86,32.07
	c-27.25,15.34-71.64-6.83-71.58-21.88C716.24,458.13,746.2,446.79,770.08,446.91z"/>
<path class="st2" d="M1073.5,327.5c6.42,0.68,31.54,3.36,35,17c2.81,11.06-14.31,11.18-26.5,16.5c-28.66,12.51-66.09-0.53-64.5-15.5
	C1018.8,333.23,1049.76,324.97,1073.5,327.5z"/>
<path class="st3" d="M822.31,350.55c-3.96-0.35-19.45-1.74-21.98-14.59c-2.05-10.43,5.28-24.01,12.6-29.66
	c17.21-13.28,43.72,10.1,43.2,24.46C855.69,342.53,836.95,351.86,822.31,350.55z"/>
<path class="st3" d="M1078.5,332.5c6.42,0.68,31.54,3.36,35,17c2.81,11.06-14.31,11.18-26.5,16.5c-28.66,12.51-66.09-0.53-64.5-15.5
	C1023.8,338.23,1054.76,329.97,1078.5,332.5z"/>
<path class="st2" d="M1020.74,507.41c-1.36,4.64-29.47,9.4-43.49,10.88c-11.37,1.2-23.68-9.07-27.72-18.39
	c-9.51-21.91,21.47-50.52,36.29-48.21C997.97,453.59,1025.77,490.25,1020.74,507.41z"/>
<path class="st3" d="M1027.74,513.41c-1.36,4.64-29.47,9.4-43.49,10.88c-11.37,1.2-23.68-9.07-27.72-18.39
	c-9.51-21.91,21.47-50.52,36.29-48.21C1004.97,459.59,1032.77,496.25,1027.74,513.41z"/>
</svg>
